<svg xmlns="http://www.w3.org/2000/svg" viewBox="0 0 424.77 136.53" role="img"><defs><style>.cls-1{fill:#c7323f}.cls-2{fill:#393534}</style></defs><g id="ink"><path d="M324.88 99.46c-1.5-1.15-2.65-2.3-3.18-3.45-1.77-3.36-.44-7.33 4.77-14.22 4.86-6.45 8.04-11.31 9.28-13.69 1.06-1.94 1.33-2.21 2.47-1.86 2.39.88 5.04 1.41 6.18 2.03 2.21 1.15 2.56 3.8-.44 7.86-4.24 5.57-11.13 14.75-11.84 19.7 4.15-.53 9.63-3.8 17.32-14.05l.26-.35c.62-.79.79-.88 1.06-.62l.26.27c.62.62.53 1.06.18 1.68l-.26.44c-3.71 6.18-14.05 18.29-20.67 18.29-1.94 0-3.89-.97-5.39-2.03Zm19.08-40.64c2.21-2.65 5.21-7.07 6.8-9.63.26-.44.44-.53.88-.35 2.21.88 4.06 2.3 4.86 3.71.62 1.06.53 2.03-.53 3.27-2.03 2.12-3.62 3.62-4.42 4.15-1.5.97-2.83 1.15-4.68 1.15-.88 0-2.65-.35-3.09-.79-.35-.35-.35-.88.18-1.5Z" class="cls-1"/><path d="M361.27 97.6c-1.24-1.94-1.24-4.06-.44-6.01 2.74-6.18 6.45-10.34 7.69-13.61-4.59 2.74-10.78 8.22-18.11 18.46-1.68 2.3-2.74 3.09-3.62 3.09-1.15 0-3.18-.71-5.3-1.24-1.77-.44-3-1.77-3-3.62 0-2.74 2.03-6.89 6.54-12.9 9.45-12.55 11.4-15.02 13.16-15.02.97 0 2.74.8 4.24 1.86 2.39 1.68 3 2.21 3 3.8 0 .97-.62 2.65-1.77 5.12 3.45-3.18 6.27-5.48 8.3-6.71 1.86-1.15 3.09-1.59 4.06-1.59 1.06 0 2.56.71 4.59 2.21 1.77 1.24 2.12 3.53.26 7.51-2.21 4.59-6.45 9.9-9.28 15.81 3.45-.09 9.72-4.77 15.81-12.99l.26-.35c.62-.79.79-.88 1.06-.62l.26.27c.62.62.53 1.06.18 1.68l-.26.44c-3.27 5.39-13.52 17.85-21.12 17.85-2.83 0-5.48-1.77-6.54-3.45Z" class="cls-1"/><path d="M383.18 100.07c-.97 0-2.3-.53-3.8-1.41-2.21-1.33-2.74-3.18-2.74-4.33 0-2.21.71-3.71 6.36-12.55 14.49-22.35 21.56-33.4 27.12-42.32 1.06-1.68 1.68-2.21 2.65-1.59 1.5.97 3 1.77 4.51 3.27 1.85 1.94 1.68 5.39-.71 9.36-4.33 6.89-11.49 17.23-18.55 28.8 5.83-4.86 12.81-9.63 23.41-15.99.26-.18.71-.27.71.18 0 .35-.26 1.15-.71 2.03-.8 1.59-1.24 2.65-4.24 4.77-2.39 1.68-4.68 3.36-7.07 5.21-1.68 4.51-2.65 9.98-2.65 13.43 0 .79.09 1.59.26 2.21 2.47-.44 5.83-2.03 9.45-5.48.27-.27.62-.18.53.27-.35 1.24-.88 2.65-1.5 3.53-.44.62-1.15 1.59-2.74 3.27-3.27 3.27-7.69 6.01-10.69 6.01-1.33 0-2.56-.26-3.62-.88-2.83-1.59-2.92-4.86-2.21-10.78-2.92 2.92-5.83 6.1-8.66 9.54-1.59 1.94-3.09 3.45-5.12 3.45Z" class="cls-1"/></g><g id="mechanical"><path d="M2.64 62.86h8.23v3.29c1.58-1.66 2.94-2.78 4.06-3.36 1.19-.61 2.69-.91 4.5-.91 4.02 0 7.21 1.76 9.55 5.27 2.58-3.51 6.08-5.27 10.5-5.27 8.02 0 12.03 4.86 12.03 14.59v22.02h-8.27V78.7c0-3.41-.42-5.83-1.24-7.24-.85-1.44-2.26-2.16-4.21-2.16-2.27 0-3.92.85-4.96 2.56s-1.55 4.45-1.55 8.23v18.4h-8.27V78.81c0-6.34-1.83-9.51-5.49-9.51-2.32 0-4 .87-5.07 2.6-1.06 1.73-1.59 4.46-1.59 8.19v18.4H2.64V62.86ZM123.48 36.71h8.23v29.11c2.93-2.63 6.16-3.95 9.69-3.95 4.02 0 7.24 1.3 9.66 3.91 2.05 2.27 3.07 5.89 3.07 10.86v21.83h-8.23V77.4c0-2.85-.51-4.92-1.52-6.2-1.01-1.28-2.64-1.92-4.88-1.92-2.88 0-4.9.89-6.07 2.67-1.15 1.8-1.72 4.9-1.72 9.29v17.23h-8.23V36.71ZM184.99 62.86h8.27v35.62h-8.27v-3.73c-3.39 3.17-7.03 4.75-10.94 4.75-4.93 0-9-1.78-12.22-5.34-3.19-3.63-4.79-8.17-4.79-13.61s1.6-9.79 4.79-13.35c3.19-3.56 7.19-5.34 12-5.34 4.15 0 7.86 1.71 11.16 5.12v-4.13Zm-19.53 17.7c0 3.41.91 6.19 2.74 8.34 1.88 2.17 4.24 3.26 7.1 3.26 3.05 0 5.51-1.05 7.39-3.15 1.88-2.17 2.82-4.92 2.82-8.27s-.94-6.1-2.82-8.27c-1.88-2.12-4.32-3.18-7.31-3.18-2.83 0-5.19 1.07-7.1 3.22-1.88 2.17-2.82 4.85-2.82 8.05ZM196.78 62.86h8.27v3.29c2.88-2.85 6.12-4.28 9.73-4.28 4.15 0 7.38 1.3 9.69 3.91 2 2.22 3 5.84 3 10.86v21.83h-8.27v-19.9c0-3.51-.49-5.94-1.46-7.28-.95-1.37-2.68-2.05-5.19-2.05-2.73 0-4.67.9-5.82 2.71-1.12 1.78-1.68 4.89-1.68 9.33v17.19h-8.27V62.86ZM229.74 48.05c0-1.44.52-2.68 1.57-3.73 1.05-1.05 2.3-1.57 3.77-1.57s2.76.52 3.8 1.57c1.05 1.02 1.57 2.28 1.57 3.77s-.52 2.76-1.57 3.8c-1.02 1.05-2.28 1.57-3.77 1.57s-2.76-.52-3.8-1.57c-1.05-1.05-1.57-2.33-1.57-3.84Zm9.47 14.81v35.62h-8.23V62.86h8.23ZM297.86 62.86h8.27v35.62h-8.27v-3.73c-3.39 3.17-7.03 4.75-10.94 4.75-4.93 0-9-1.78-12.22-5.34-3.19-3.63-4.79-8.17-4.79-13.61s1.6-9.79 4.79-13.35c3.19-3.56 7.19-5.34 12-5.34 4.15 0 7.86 1.71 11.16 5.12v-4.13Zm-19.53 17.7c0 3.41.91 6.19 2.74 8.34 1.88 2.17 4.24 3.26 7.1 3.26 3.05 0 5.51-1.05 7.39-3.15 1.88-2.17 2.82-4.92 2.82-8.27s-.94-6.1-2.82-8.27c-1.88-2.12-4.32-3.18-7.31-3.18-2.83 0-5.19 1.07-7.1 3.22-1.88 2.17-2.82 4.85-2.82 8.05Z" class="cls-2"/><path d="M268.06 93.69c-.84-.96-1.57-1.98-2.19-3.07-1.38.66-2.93 1.01-4.67 1.01-3.1 0-5.64-1.07-7.64-3.22-1.98-2.15-2.96-4.89-2.96-8.23s1.02-5.99 3.07-8.16 4.62-3.26 7.72-3.26c1.68 0 3.17.34 4.48.98a18.28 18.28 0 0 1 2.19-3.02 16.32 16.32 0 0 1 3.42-2.91c-3.09-1.64-6.37-2.47-9.84-2.47-5.46 0-10.07 1.83-13.83 5.49s-5.63 8.14-5.63 13.46 1.85 9.77 5.56 13.35c3.71 3.56 8.31 5.34 13.83 5.34 3.27 0 6.53-.83 9.8-2.49a16.69 16.69 0 0 1-3.3-2.81ZM116.97 93.69c-.84-.96-1.57-1.98-2.19-3.07-1.38.66-2.93 1.01-4.67 1.01-3.1 0-5.64-1.07-7.64-3.22-1.98-2.15-2.96-4.89-2.96-8.23s1.02-5.99 3.07-8.16 4.62-3.26 7.72-3.26c1.68 0 3.17.34 4.48.98a18.28 18.28 0 0 1 2.19-3.02 16.32 16.32 0 0 1 3.42-2.91c-3.09-1.64-6.37-2.47-9.84-2.47-5.46 0-10.07 1.83-13.83 5.49s-5.63 8.14-5.63 13.46 1.85 9.77 5.56 13.35c3.71 3.56 8.31 5.34 13.83 5.34 3.27 0 6.53-.83 9.8-2.49a16.69 16.69 0 0 1-3.3-2.81ZM317.88 36.71v61.77h-8.23V36.71h8.23ZM68.36 85.28s-.05.07-.07.11l.11-.09-.04-.02ZM81.55 89.16l-.12-.07.09.11s.02-.03.03-.04Z" class="cls-2"/><path d="M72.3 92.16c-2.63 0-4.79-.85-6.47-2.56-1.68-1.73-2.63-4.06-2.85-6.99h25.53l.04-1.94c0-5.88-1.51-10.47-4.54-13.79-3.05-3.34-7.19-5.01-12.44-5.01s-9.36 1.72-12.51 5.16c-3.12 3.49-4.68 8.05-4.68 13.68s1.61 10.24 4.83 13.68c3.22 3.41 7.49 5.12 12.8 5.12 1.85 0 3.57-.2 5.16-.59.76-.19 1.49-.43 2.19-.72l-5.05-6.25c-.63.12-1.29.2-2 .2Zm-7.61-19.02a8.53 8.53 0 0 1 1.85-2.07c.72-.57 1.52-1.01 2.4-1.32.88-.3 1.82-.46 2.82-.46 4.39 0 7.16 2.19 8.3 6.58H63.53c.27-1.02.66-1.94 1.17-2.74ZM65.77 122.11c0-.91.16-1.74.49-2.48s.77-1.38 1.33-1.91 1.22-.94 1.99-1.22 1.58-.43 2.45-.43 1.68.14 2.45.43 1.43.7 1.99 1.22c.56.53 1 1.16 1.33 1.91s.49 1.57.49 2.48-.16 1.74-.49 2.48c-.33.74-.77 1.38-1.33 1.91s-1.22.94-1.99 1.22c-.77.29-1.58.43-2.45.43s-1.68-.14-2.45-.43c-.77-.29-1.43-.7-1.99-1.22s-1-1.16-1.33-1.91c-.33-.74-.49-1.57-.49-2.48Zm2.88 0c0 .45.08.88.23 1.3.15.42.38.78.67 1.1.3.32.65.58 1.07.77.42.19.89.29 1.42.29s1-.1 1.42-.29c.42-.19.77-.45 1.07-.77.3-.32.52-.69.67-1.1.15-.42.23-.85.23-1.3s-.08-.88-.23-1.3c-.15-.42-.38-.78-.67-1.1-.3-.32-.65-.58-1.07-.77-.42-.19-.89-.29-1.42-.29s-1 .1-1.42.29c-.42.19-.77.45-1.07.77-.3.32-.52.69-.67 1.1-.15.42-.23.85-.23 1.3ZM79.78 116.35h2.74v1.73h.05c.42-.7.98-1.22 1.68-1.54.7-.32 1.46-.48 2.28-.48.88 0 1.67.16 2.38.47.7.31 1.3.74 1.8 1.28s.87 1.18 1.13 1.92c.26.74.38 1.53.38 2.38s-.14 1.64-.41 2.38-.65 1.38-1.14 1.92c-.49.54-1.08.97-1.76 1.28-.69.31-1.44.47-2.26.47-.54 0-1.02-.06-1.44-.17-.42-.11-.78-.26-1.1-.43-.32-.18-.59-.36-.82-.56-.22-.2-.41-.4-.55-.59h-.07v6.94h-2.88v-16.99Zm9.55 5.76c0-.45-.08-.88-.23-1.3-.15-.42-.38-.78-.67-1.1-.3-.32-.65-.58-1.07-.77-.42-.19-.89-.29-1.42-.29s-1 .1-1.42.29c-.42.19-.77.45-1.07.77-.3.32-.52.69-.67 1.1-.15.42-.23.85-.23 1.3s.08.88.23 1.3c.15.42.38.78.67 1.1.3.32.65.58 1.07.77.42.19.89.29 1.42.29s1-.1 1.42-.29c.42-.19.77-.45 1.07-.77.3-.32.52-.69.67-1.1.15-.42.23-.85.23-1.3ZM96.01 123.12c.1.86.43 1.54 1.01 2.02.58.48 1.27.72 2.09.72.72 0 1.32-.15 1.81-.44.49-.3.92-.67 1.28-1.12l2.06 1.56c-.67.83-1.42 1.42-2.26 1.78-.83.35-1.7.53-2.62.53-.86 0-1.68-.14-2.45-.43-.77-.29-1.43-.7-1.99-1.22s-1-1.16-1.33-1.91c-.33-.74-.49-1.57-.49-2.48s.16-1.74.49-2.48.77-1.38 1.33-1.91 1.22-.94 1.99-1.22 1.58-.43 2.45-.43c.8 0 1.53.14 2.2.42.66.28 1.23.68 1.7 1.21.47.53.84 1.18 1.1 1.96.26.78.4 1.67.4 2.68v.79H96Zm5.9-2.16c-.02-.85-.28-1.52-.79-2s-1.22-.73-2.14-.73c-.86 0-1.55.25-2.05.74-.5.5-.81 1.16-.92 1.99h5.9ZM106.28 116.35h2.74v1.85h.05c.27-.58.69-1.08 1.25-1.5.56-.42 1.32-.64 2.28-.64.77 0 1.42.13 1.96.38s.97.59 1.31 1.01.58.9.72 1.44c.14.54.22 1.11.22 1.7v7.27h-2.88v-5.83c0-.32-.02-.68-.05-1.07-.03-.39-.12-.76-.25-1.1-.14-.34-.35-.63-.64-.86-.29-.23-.68-.35-1.18-.35s-.88.08-1.21.24c-.33.16-.6.38-.82.65-.22.27-.37.58-.47.94-.1.35-.14.72-.14 1.1v6.29h-2.88v-11.52ZM130.9 119.54c-.56-.78-1.31-1.18-2.26-1.18-.38 0-.76.1-1.13.29-.37.19-.55.5-.55.94 0 .35.15.61.46.77.3.16.69.3 1.15.41.46.11.96.23 1.5.35.54.12 1.04.3 1.5.55.46.25.85.59 1.15 1.02.3.43.46 1.02.46 1.78 0 .69-.15 1.27-.44 1.74s-.68.85-1.15 1.14c-.47.29-1 .5-1.6.62s-1.18.19-1.78.19c-.9 0-1.72-.13-2.47-.38-.75-.26-1.42-.72-2.02-1.39l1.92-1.8c.37.42.76.76 1.19 1.02.42.26.94.4 1.55.4.21 0 .42-.02.65-.07s.43-.13.62-.24c.19-.11.35-.25.47-.42.12-.17.18-.36.18-.59 0-.4-.15-.7-.46-.89-.3-.19-.69-.35-1.15-.47-.46-.12-.96-.23-1.5-.34s-1.04-.27-1.5-.5c-.46-.23-.85-.56-1.15-.97-.3-.42-.46-.99-.46-1.73 0-.64.13-1.2.4-1.67s.61-.86 1.04-1.16.93-.53 1.49-.67a6.68 6.68 0 0 1 3.98.18c.75.26 1.36.72 1.82 1.36l-1.92 1.73ZM133.64 122.11c0-.91.16-1.74.49-2.48s.77-1.38 1.33-1.91 1.22-.94 1.99-1.22 1.58-.43 2.45-.43 1.68.14 2.45.43 1.43.7 1.99 1.22c.56.53 1 1.16 1.33 1.91s.49 1.57.49 2.48-.16 1.74-.49 2.48c-.33.74-.77 1.38-1.33 1.91s-1.22.94-1.99 1.22c-.77.29-1.58.43-2.45.43s-1.68-.14-2.45-.43c-.77-.29-1.43-.7-1.99-1.22s-1-1.16-1.33-1.91c-.33-.74-.49-1.57-.49-2.48Zm2.88 0c0 .45.08.88.23 1.3.15.42.38.78.67 1.1.3.32.65.58 1.07.77.42.19.89.29 1.42.29s1-.1 1.42-.29c.42-.19.77-.45 1.07-.77.3-.32.52-.69.67-1.1.15-.42.23-.85.23-1.3s-.08-.88-.23-1.3c-.15-.42-.38-.78-.67-1.1-.3-.32-.65-.58-1.07-.77-.42-.19-.89-.29-1.42-.29s-1 .1-1.42.29c-.42.19-.77.45-1.07.77-.3.32-.52.69-.67 1.1-.15.42-.23.85-.23 1.3ZM158.16 127.87h-2.74v-1.85h-.05c-.27.58-.69 1.08-1.25 1.5s-1.32.64-2.28.64c-.77 0-1.42-.12-1.96-.37s-.97-.58-1.31-1.01-.58-.91-.72-1.45-.22-1.11-.22-1.7v-7.27h2.88v5.83c0 .32.02.68.05 1.07.03.39.12.76.25 1.1.14.34.34.63.62.86.28.23.68.35 1.19.35.48 0 .88-.08 1.21-.24.33-.16.6-.38.82-.65.22-.27.37-.58.47-.94.1-.35.14-.72.14-1.1v-6.29h2.88v11.52ZM160.23 116.35h2.88v1.82h.05c.32-.67.78-1.19 1.37-1.56.59-.37 1.27-.55 2.04-.55.18 0 .35.02.52.05s.34.07.52.12v2.78c-.24-.06-.48-.12-.71-.16s-.46-.06-.68-.06c-.67 0-1.21.12-1.62.37-.41.25-.72.53-.94.85-.22.32-.36.64-.43.96-.07.32-.11.56-.11.72v6.17h-2.88v-11.52ZM175.8 119.81c-.34-.35-.69-.63-1.06-.84a2.24 2.24 0 0 0-1.13-.31c-.53 0-1 .1-1.42.29-.42.19-.77.45-1.07.77-.3.32-.52.69-.67 1.1-.15.42-.23.85-.23 1.3s.08.88.23 1.3c.15.42.38.78.67 1.1.3.32.65.58 1.07.77.42.19.89.29 1.42.29.45 0 .86-.09 1.25-.28.38-.18.71-.45.98-.8l1.92 2.06c-.29.29-.62.54-1 .74-.38.21-.76.38-1.14.5-.38.13-.75.22-1.1.28-.35.06-.66.08-.91.08-.86 0-1.68-.14-2.45-.43-.77-.29-1.43-.7-1.99-1.22s-1-1.16-1.33-1.91c-.33-.74-.49-1.57-.49-2.48s.16-1.74.49-2.48.77-1.38 1.33-1.91 1.22-.94 1.99-1.22 1.58-.43 2.45-.43c.74 0 1.48.14 2.22.42s1.4.72 1.96 1.33l-1.99 1.99Z" class="cls-2"/><path d="M180.6 123.12c.1.86.43 1.54 1.01 2.02.58.48 1.27.72 2.09.72.72 0 1.32-.15 1.81-.44.49-.3.92-.67 1.28-1.12l2.06 1.56c-.67.83-1.42 1.42-2.26 1.78-.83.35-1.7.53-2.62.53-.86 0-1.68-.14-2.45-.43-.77-.29-1.43-.7-1.99-1.22s-1-1.16-1.33-1.91c-.33-.74-.49-1.57-.49-2.48s.16-1.74.49-2.48.77-1.38 1.33-1.91 1.22-.94 1.99-1.22 1.58-.43 2.45-.43c.8 0 1.53.14 2.2.42.66.28 1.23.68 1.7 1.21.47.53.84 1.18 1.1 1.96.26.78.4 1.67.4 2.68v.79h-8.78Zm5.9-2.16c-.02-.85-.28-1.52-.79-2s-1.22-.73-2.14-.73c-.86 0-1.55.25-2.05.74-.5.5-.81 1.16-.92 1.99h5.9ZM215.91 123.12c.1.86.43 1.54 1.01 2.02.58.48 1.27.72 2.09.72.72 0 1.32-.15 1.81-.44.49-.3.92-.67 1.28-1.12l2.06 1.56c-.67.83-1.42 1.42-2.26 1.78-.83.35-1.7.53-2.62.53-.86 0-1.68-.14-2.45-.43-.77-.29-1.43-.7-1.99-1.22a5.8 5.8 0 0 1-1.33-1.91c-.33-.74-.49-1.57-.49-2.48s.16-1.74.49-2.48.77-1.38 1.33-1.91 1.22-.94 1.99-1.22c.77-.29 1.58-.43 2.45-.43.8 0 1.53.14 2.2.42.66.28 1.23.68 1.7 1.21.47.53.84 1.18 1.1 1.96s.4 1.67.4 2.68v.79h-8.78Zm5.9-2.16c-.02-.85-.28-1.52-.79-2-.51-.49-1.22-.73-2.14-.73-.86 0-1.55.25-2.05.74-.5.5-.81 1.16-.92 1.99h5.9ZM224.83 118.8v-2.45h2.38v-3.34h2.88v3.34h3.17v2.45h-3.17v5.04c0 .58.11 1.03.32 1.37.22.34.64.5 1.28.5.26 0 .54-.03.84-.08.3-.06.54-.15.72-.28v2.42c-.3.14-.68.24-1.12.3-.44.06-.83.08-1.16.08-.77 0-1.4-.08-1.88-.25-.49-.17-.87-.42-1.15-.77-.28-.34-.47-.77-.58-1.28-.1-.51-.16-1.1-.16-1.78v-5.28h-2.38ZM237.22 117.96h.05c.22-.48.62-.92 1.19-1.31s1.3-.59 2.2-.59c.77 0 1.42.13 1.96.38s.97.59 1.31 1.01.58.9.72 1.44c.14.54.22 1.11.22 1.7v7.27h-2.88v-5.83c0-.32-.02-.68-.05-1.07-.03-.39-.12-.76-.25-1.1s-.35-.63-.64-.86c-.29-.23-.68-.35-1.18-.35s-.88.08-1.21.24c-.33.16-.6.38-.82.65-.22.27-.37.58-.47.94-.1.35-.14.72-.14 1.1v6.29h-2.88v-18.14h2.88v8.23ZM246.55 112.44c0-.46.17-.87.52-1.21.34-.34.78-.52 1.31-.52s.97.16 1.33.49.54.74.54 1.24-.18.91-.54 1.24c-.36.33-.8.49-1.33.49s-.96-.17-1.31-.52c-.34-.34-.52-.75-.52-1.21Zm.41 3.91h2.88v11.52h-2.88v-11.52ZM259.82 119.81c-.34-.35-.69-.63-1.06-.84a2.24 2.24 0 0 0-1.13-.31c-.53 0-1 .1-1.42.29-.42.19-.77.45-1.07.77-.3.32-.52.69-.67 1.1-.15.42-.23.85-.23 1.3s.08.88.23 1.3c.15.42.38.78.67 1.1.3.32.65.58 1.07.77.42.19.89.29 1.42.29.45 0 .86-.09 1.25-.28.38-.18.71-.45.98-.8l1.92 2.06c-.29.29-.62.54-1 .74s-.76.38-1.14.5-.75.22-1.1.28c-.35.06-.66.08-.91.08-.86 0-1.68-.14-2.45-.43-.77-.29-1.43-.7-1.99-1.22a5.8 5.8 0 0 1-1.33-1.91c-.33-.74-.49-1.57-.49-2.48s.16-1.74.49-2.48.77-1.38 1.33-1.91 1.22-.94 1.99-1.22c.77-.29 1.58-.43 2.45-.43.74 0 1.48.14 2.22.42s1.4.72 1.96 1.33l-1.99 1.99Z" class="cls-2"/><path d="M269.52 126.29h-.07c-.42.66-.94 1.13-1.58 1.43-.64.3-1.34.44-2.11.44-.53 0-1.04-.07-1.55-.22-.5-.14-.95-.36-1.34-.65-.39-.29-.71-.65-.95-1.08-.24-.43-.36-.94-.36-1.51 0-.62.11-1.16.34-1.6.22-.44.52-.81.9-1.1.38-.3.81-.53 1.31-.71.5-.18 1.01-.31 1.55-.4s1.08-.14 1.62-.17c.54-.02 1.06-.04 1.54-.04h.72v-.31c0-.72-.25-1.26-.74-1.62-.5-.36-1.13-.54-1.9-.54-.61 0-1.18.11-1.7.32s-.98.51-1.37.88l-1.51-1.51c.64-.66 1.39-1.13 2.24-1.42a8.22 8.22 0 0 1 2.65-.43c.82 0 1.5.09 2.06.28.56.18 1.02.42 1.39.71s.65.62.85 1c.2.38.34.76.43 1.14.09.38.14.76.16 1.12.02.36.02.68.02.95v6.62h-2.59v-1.58Zm-.17-3.58h-.6c-.4 0-.85.02-1.34.05-.5.03-.96.11-1.4.23-.44.12-.81.3-1.12.53-.3.23-.46.56-.46.97 0 .27.06.5.18.68.12.18.28.34.47.47.19.13.41.22.65.28.24.06.48.08.72.08.99 0 1.72-.24 2.2-.71.47-.47.71-1.12.71-1.93v-.65ZM274.06 109.73h2.88v18.14h-2.88v-18.14ZM292.15 126.29h-.07c-.42.66-.94 1.13-1.58 1.43-.64.3-1.34.44-2.11.44-.53 0-1.04-.07-1.55-.22-.5-.14-.95-.36-1.34-.65-.39-.29-.71-.65-.95-1.08-.24-.43-.36-.94-.36-1.51 0-.62.11-1.16.34-1.6.22-.44.52-.81.9-1.1.38-.3.81-.53 1.31-.71.5-.18 1.01-.31 1.55-.4.54-.09 1.08-.14 1.62-.17.54-.02 1.06-.04 1.54-.04h.72v-.31c0-.72-.25-1.26-.74-1.62-.5-.36-1.13-.54-1.9-.54-.61 0-1.18.11-1.7.32-.53.22-.98.51-1.37.88l-1.51-1.51c.64-.66 1.39-1.13 2.24-1.42s1.74-.43 2.65-.43c.82 0 1.5.09 2.06.28.56.18 1.02.42 1.39.71.37.29.65.62.85 1s.34.76.43 1.14c.09.38.14.76.16 1.12.02.36.02.68.02.95v6.62h-2.59v-1.58Zm-.17-3.58h-.6c-.4 0-.85.02-1.34.05-.5.03-.96.11-1.4.23-.44.12-.81.3-1.12.53-.3.23-.46.56-.46.97 0 .27.06.5.18.68.12.18.28.34.47.47.19.13.41.22.65.28.24.06.48.08.72.08.99 0 1.72-.24 2.2-.71s.71-1.12.71-1.93v-.65ZM296.64 116.35h2.74v1.85h.05c.27-.58.69-1.08 1.25-1.5.56-.42 1.32-.64 2.28-.64.77 0 1.42.13 1.96.38.54.26.97.59 1.31 1.01s.58.9.72 1.44c.14.54.22 1.11.22 1.7v7.27h-2.88v-5.83c0-.32-.02-.68-.05-1.07-.03-.39-.12-.76-.25-1.1s-.35-.63-.64-.86c-.29-.23-.68-.35-1.18-.35s-.88.08-1.21.24c-.33.16-.6.38-.82.65-.22.27-.37.58-.47.94-.1.35-.14.72-.14 1.1v6.29h-2.88v-11.52ZM318.33 126.14h-.05c-.42.7-.98 1.22-1.68 1.54-.71.32-1.46.48-2.28.48-.9 0-1.69-.16-2.39-.47-.7-.31-1.29-.74-1.79-1.28s-.87-1.18-1.13-1.92c-.26-.74-.38-1.53-.38-2.38s.14-1.64.41-2.38.65-1.38 1.14-1.92c.49-.54 1.08-.97 1.76-1.28.69-.31 1.44-.47 2.26-.47.54 0 1.02.06 1.44.17.42.11.78.26 1.1.43s.59.36.82.56c.22.2.41.4.55.59h.07v-8.09h2.88v18.14h-2.74v-1.73Zm-6.82-4.03c0 .45.08.88.23 1.3.15.42.38.78.67 1.1.3.32.65.58 1.07.77.42.19.89.29 1.42.29s1-.1 1.42-.29c.42-.19.77-.45 1.07-.77.3-.32.52-.69.67-1.1.15-.42.23-.85.23-1.3s-.08-.88-.23-1.3c-.15-.42-.38-.78-.67-1.1-.3-.32-.65-.58-1.07-.77-.42-.19-.89-.29-1.42-.29s-1 .1-1.42.29c-.42.19-.77.45-1.07.77-.3.32-.52.69-.67 1.1-.15.42-.23.85-.23 1.3ZM336.91 119.81c-.34-.35-.69-.63-1.06-.84a2.24 2.24 0 0 0-1.13-.31c-.53 0-1 .1-1.42.29-.42.19-.77.45-1.07.77-.3.32-.52.69-.67 1.1-.15.42-.23.85-.23 1.3s.08.88.23 1.3c.15.42.38.78.67 1.1.3.32.65.58 1.07.77.42.19.89.29 1.42.29.45 0 .86-.09 1.25-.28.38-.18.71-.45.98-.8l1.92 2.06c-.29.29-.62.54-1 .74s-.76.38-1.14.5-.75.22-1.1.28c-.35.06-.66.08-.91.08-.86 0-1.68-.14-2.45-.43-.77-.29-1.43-.7-1.99-1.22a5.8 5.8 0 0 1-1.33-1.91c-.33-.74-.49-1.57-.49-2.48s.16-1.74.49-2.48.77-1.38 1.33-1.91 1.22-.94 1.99-1.22c.77-.29 1.58-.43 2.45-.43.74 0 1.48.14 2.22.42s1.4.72 1.96 1.33l-1.99 1.99ZM339.05 112.44c0-.46.17-.87.52-1.21.34-.34.78-.52 1.31-.52s.97.16 1.33.49c.36.33.54.74.54 1.24s-.18.91-.54 1.24c-.36.33-.8.49-1.33.49s-.96-.17-1.31-.52c-.34-.34-.52-.75-.52-1.21Zm.41 3.91h2.88v11.52h-2.88v-11.52ZM342.89 116.35h3.14l3.07 8.06h.05l3.1-8.06h2.95l-4.54 11.52h-3.07l-4.7-11.52ZM355.34 112.44c0-.46.17-.87.52-1.21.34-.34.78-.52 1.31-.52s.97.16 1.33.49c.36.33.54.74.54 1.24s-.18.91-.54 1.24c-.36.33-.8.49-1.33.49s-.96-.17-1.31-.52c-.34-.34-.52-.75-.52-1.21Zm.41 3.91h2.88v11.52h-2.88v-11.52ZM368.61 119.81c-.34-.35-.69-.63-1.06-.84a2.24 2.24 0 0 0-1.13-.31c-.53 0-1 .1-1.42.29-.42.19-.77.45-1.07.77-.3.32-.52.69-.67 1.1-.15.42-.23.85-.23 1.3s.08.88.23 1.3c.15.42.38.78.67 1.1.3.32.65.58 1.07.77.42.19.89.29 1.42.29.45 0 .86-.09 1.25-.28.38-.18.71-.45.98-.8l1.92 2.06c-.29.29-.62.54-1 .74s-.76.38-1.14.5-.75.22-1.1.28c-.35.06-.66.08-.91.08-.86 0-1.68-.14-2.45-.43-.77-.29-1.43-.7-1.99-1.22a5.8 5.8 0 0 1-1.33-1.91c-.33-.74-.49-1.57-.49-2.48s.16-1.74.49-2.48.77-1.38 1.33-1.91 1.22-.94 1.99-1.22c.77-.29 1.58-.43 2.45-.43.74 0 1.48.14 2.22.42s1.4.72 1.96 1.33l-1.99 1.99ZM375.67 118.8v-2.45h2.38v-3.34h2.88v3.34h3.17v2.45h-3.17v5.04c0 .58.11 1.03.32 1.37s.64.5 1.28.5c.26 0 .54-.03.84-.08.3-.06.54-.15.72-.28v2.42c-.3.14-.68.24-1.12.3-.44.06-.83.08-1.16.08-.77 0-1.4-.08-1.88-.25s-.87-.42-1.15-.77c-.28-.34-.47-.77-.58-1.28-.1-.51-.16-1.1-.16-1.78v-5.28h-2.38ZM387.45 123.12c.1.86.43 1.54 1.01 2.02.58.48 1.27.72 2.09.72.72 0 1.32-.15 1.81-.44s.92-.67 1.28-1.12l2.06 1.56c-.67.83-1.42 1.42-2.26 1.78s-1.7.53-2.62.53c-.86 0-1.68-.14-2.45-.43-.77-.29-1.43-.7-1.99-1.22a5.8 5.8 0 0 1-1.33-1.91c-.33-.74-.49-1.57-.49-2.48s.16-1.74.49-2.48.77-1.38 1.33-1.91 1.22-.94 1.99-1.22c.77-.29 1.58-.43 2.45-.43.8 0 1.53.14 2.2.42s1.23.68 1.7 1.21c.47.53.84 1.18 1.1 1.96.26.78.4 1.67.4 2.68v.79h-8.78Zm5.9-2.16c-.02-.85-.28-1.52-.79-2s-1.22-.73-2.14-.73c-.86 0-1.55.25-2.05.74-.5.5-.81 1.16-.92 1.99h5.9ZM405.6 119.81c-.34-.35-.69-.63-1.06-.84a2.24 2.24 0 0 0-1.13-.31c-.53 0-1 .1-1.42.29-.42.19-.77.45-1.07.77-.3.32-.52.69-.67 1.1-.15.42-.23.85-.23 1.3s.08.88.23 1.3c.15.42.38.78.67 1.1.3.32.65.58 1.07.77.42.19.89.29 1.42.29.45 0 .86-.09 1.25-.28.38-.18.71-.45.98-.8l1.92 2.06c-.29.29-.62.54-1 .74s-.76.38-1.14.5-.75.22-1.1.28c-.35.06-.66.08-.91.08-.86 0-1.68-.14-2.45-.43-.77-.29-1.43-.7-1.99-1.22a5.8 5.8 0 0 1-1.33-1.91c-.33-.74-.49-1.57-.49-2.48s.16-1.74.49-2.48.77-1.38 1.33-1.91 1.22-.94 1.99-1.22c.77-.29 1.58-.43 2.45-.43.74 0 1.48.14 2.22.42s1.4.72 1.96 1.33l-1.99 1.99ZM410.97 117.96h.05c.22-.48.62-.92 1.19-1.31s1.3-.59 2.2-.59c.77 0 1.42.13 1.96.38.54.26.97.59 1.31 1.01s.58.9.72 1.44c.14.54.22 1.11.22 1.7v7.27h-2.88v-5.83c0-.32-.02-.68-.05-1.07-.03-.39-.12-.76-.25-1.1s-.35-.63-.64-.86c-.29-.23-.68-.35-1.18-.35s-.88.08-1.21.24c-.33.16-.6.38-.82.65-.22.27-.37.58-.47.94-.1.35-.14.72-.14 1.1v6.29h-2.88v-18.14h2.88v8.23Z" class="cls-2"/></g><g id="logo"><circle cx="235.26" cy="9.99" r="6.81" class="cls-1"/><circle cx="201.96" cy="121.51" r="5" class="cls-1"/><circle cx="254.87" cy="9.99" r="6.81" class="cls-1"/><circle cx="294.72" cy="9.99" r="6.81" class="cls-1"/><circle cx="275.13" cy="29.58" r="6.81" class="cls-1"/><circle cx="235.26" cy="48.73" r="6.81" class="cls-1"/></g></svg>
