<?xml version="1.0" standalone="no"?>
<!DOCTYPE svg PUBLIC "-//W3C//DTD SVG 20010904//EN"
 "http://www.w3.org/TR/2001/REC-SVG-20010904/DTD/svg10.dtd">
<svg version="1.0" xmlns="http://www.w3.org/2000/svg"
 width="700.000000pt" height="700.000000pt" viewBox="0 0 700.000000 700.000000"
 preserveAspectRatio="xMidYMid meet">
<metadata>
Created by potrace 1.14, written by Peter Selinger 2001-2017
</metadata>
<g transform="translate(0.000000,700.000000) scale(0.100000,-0.100000)"
fill="#000000" stroke="none">
<path d="M838 5760 c-231 -36 -424 -212 -483 -440 -23 -88 -16 -250 15 -337
62 -178 219 -323 405 -374 101 -27 246 -23 342 11 166 58 303 195 365 366 26
73 36 234 18 318 -6 31 -30 94 -52 139 -111 223 -365 355 -610 317z"/>
<path d="M2534 5760 c-289 -52 -494 -289 -496 -575 -2 -164 56 -309 168 -419
78 -78 155 -123 256 -153 254 -73 533 37 668 266 71 121 98 284 69 423 -20 97
-84 214 -157 287 -134 133 -337 201 -508 171z"/>
<path d="M5983 5759 c-235 -41 -421 -212 -479 -441 -22 -86 -15 -252 14 -332
109 -298 420 -460 720 -373 181 53 330 193 392 370 31 87 38 249 15 337 -36
139 -131 273 -248 350 -112 73 -289 111 -414 89z"/>
<path d="M4231 4050 c-166 -45 -308 -161 -379 -312 -47 -97 -62 -161 -62 -261
0 -271 199 -516 466 -572 134 -28 256 -11 390 54 136 68 249 203 297 356 27
90 29 233 3 320 -57 193 -200 343 -386 405 -95 32 -233 36 -329 10z"/>
<path d="M760 2387 c-180 -54 -329 -196 -390 -370 -31 -87 -38 -249 -15 -337
85 -329 430 -520 750 -416 153 49 271 151 344 296 22 43 45 105 51 136 18 84
8 245 -18 318 -62 171 -199 308 -365 366 -96 34 -258 37 -357 7z"/>
</g>
</svg>
